<svg width="59" height="59" viewBox="0 0 59 59" fill="none" xmlns="http://www.w3.org/2000/svg">
<path d="M56.1666 43.12V51.12C56.1696 51.8627 56.0175 52.5978 55.7199 53.2783C55.4224 53.9587 54.986 54.5696 54.4388 55.0716C53.8915 55.5737 53.2454 55.956 52.5419 56.1939C51.8384 56.4318 51.0929 56.5202 50.3532 56.4533C42.1475 55.5617 34.2652 52.7577 27.3399 48.2667C20.8968 44.1724 15.4341 38.7098 11.3399 32.2667C6.83318 25.3099 4.02855 17.3893 3.15324 9.14666C3.0866 8.40924 3.17424 7.66602 3.41057 6.96433C3.64691 6.26263 4.02676 5.61783 4.52595 5.07098C5.02513 4.52414 5.63272 4.08722 6.31001 3.78805C6.98731 3.48889 7.71948 3.33402 8.4599 3.33333H16.4599C17.7541 3.32059 19.0087 3.77887 19.9899 4.62275C20.9712 5.46663 21.6121 6.63852 21.7932 7.91999C22.1309 10.4802 22.7571 12.9939 23.6599 15.4133C24.0187 16.3678 24.0963 17.4051 23.8837 18.4023C23.671 19.3996 23.1769 20.315 22.4599 21.04L19.0732 24.4267C22.8694 31.1028 28.3971 36.6305 35.0732 40.4267L38.4599 37.04C39.1849 36.323 40.1003 35.8289 41.0976 35.6162C42.0948 35.4036 43.1321 35.4812 44.0866 35.84C46.506 36.7428 49.0197 37.369 51.5799 37.7067C52.8753 37.8894 54.0583 38.5419 54.904 39.54C55.7497 40.5381 56.199 41.8122 56.1666 43.12Z" stroke="#E9204F" stroke-width="5" stroke-linecap="round" stroke-linejoin="round"/>
</svg>
