<svg width="20" height="12" viewBox="0 0 20 12" fill="none" xmlns="http://www.w3.org/2000/svg">
<path fill-rule="evenodd" clip-rule="evenodd" d="M14.7051 2.00401C15.0967 1.61458 15.0985 0.98142 14.7091 0.589801C14.3197 0.198183 13.6865 0.196407 13.2949 0.585834L7.44937 6.39864L6.70512 5.65856C6.3135 5.26913 5.68034 5.27091 5.29091 5.66253C4.90149 6.05415 4.90326 6.68731 5.29488 7.07674L6.03117 7.80891L4.94937 8.88466L1.70512 5.65856C1.3135 5.26913 0.68034 5.27091 0.290913 5.66253C-0.0985148 6.05415 -0.0967387 6.68731 0.29488 7.07674L4.24425 11.004L4.94937 11.7052L5.65449 11.004L7.44937 9.21917L9.24425 11.004L9.94937 11.7052L10.6545 11.004L19.7051 2.00401C20.0967 1.61458 20.0985 0.98142 19.7091 0.589801C19.3197 0.198183 18.6865 0.196407 18.2949 0.585834L9.94937 8.88466L8.86757 7.80891L14.7051 2.00401Z" fill="black"/>
</svg>
